<svg height="48" width="48" xmlns:xlink="http://www.w3.org/1999/xlink" xmlns="http://www.w3.org/2000/svg" version="1.1"><defs><linearGradient id="color-1" gradientUnits="userSpaceOnUse" y2="48.52042" x2="49.32646" y1="15.03592" x1="14.22989"><stop stop-opacity="0.59" stop-color="#000000" offset="0"></stop><stop stop-opacity="0" stop-color="#000000" offset="1"></stop></linearGradient><filter id="dropshadow-base"><feColorMatrix type="matrix" values="0 0 0 0 0  0 0 0 0 0  0 0 0 0 0  0 0 0 .8 0"></feColorMatrix> <feOffset dx="0" dy="1"></feOffset> <feGaussianBlur stdDeviation="1"></feGaussianBlur> <feComposite in="SourceGraphic"></feComposite></filter><filter height="130%" width="120%" y="-10%" x="-10%" id="dropshadow-banner"><feColorMatrix type="matrix" values="0 0 0 0 0  0 0 0 0 0  0 0 0 0 0  0 0 0 .4 0"></feColorMatrix> <feOffset dx="0" dy="1"></feOffset> <feGaussianBlur stdDeviation="0.5"></feGaussianBlur> <feComposite in="SourceGraphic"></feComposite></filter></defs><g style="mix-blend-mode: normal" text-anchor="none" font-size="none" font-weight="none" font-family="none" stroke-dashoffset="0" stroke-dasharray="" stroke-miterlimit="10" stroke-linejoin="miter" stroke-linecap="butt" stroke-width="none" stroke="none" fill-rule="nonzero" fill="none"><path stroke-width="1" fill="#651fff" id="base 1 5" d="M2,24c0,-12.15026 9.84974,-22 22,-22c12.15026,0 22,9.84974 22,22c0,12.15026 -9.84974,22 -22,22c-12.15026,0 -22,-9.84974 -22,-22z"></path><path stroke-width="1" fill="url(#color-1)" d="M32.21361,16.59243c-0.96663,-0.96663 -2.31002,-1.5565 -3.81706,-1.5565c-1.69409,0 -3.32026,0.78588 -4.38542,2.02409l-0.30909,-0.30909c-1.05843,-1.05843 -2.55014,-1.715 -4.09859,-1.715c-3.01408,0 -5.37356,2.35948 -5.37356,5.37356c0,2.54738 1.58465,4.77317 4.22279,7.41131l15.55635,15.55635c0.04802,0.04802 0.09638,0.09617 0.14509,0.14446c5.42031,-2.82513 9.51666,-7.84149 11.11433,-13.87434z"></path><path stroke-width="0" fill="none" d="M24,42.7l-2.9,-2.63c-10.3,-9.35 -17.1,-15.52 -17.1,-23.07c0,-6.17 4.83,-11 11,-11c3.48,0 6.82,1.62 9,4.17c2.18,-2.55 5.52,-4.17 9,-4.17c6.17,0 11,4.83 11,11c0,7.55 -6.8,13.72 -17.1,23.07z" transform="translate(12.27587,12.10489) scale(0.48851,0.48851)"></path><path stroke-width="0" fill="#ffffff" d="M24,32.96408l-1.41667,-1.28477c-5.03161,-4.56753 -8.35344,-7.5816 -8.35344,-11.26982c0,-3.01408 2.35948,-5.37356 5.37356,-5.37356c1.7,0 3.33161,0.79138 4.39655,2.03707c1.06494,-1.24569 2.69655,-2.03707 4.39655,-2.03707c3.01408,0 5.37356,2.35948 5.37356,5.37356c0,3.68822 -3.32184,6.70229 -8.35344,11.26982z"></path><path stroke-width="1" fill="none" id="base 1 1 1" d="M2,24c0,-12.15026 9.84974,-22 22,-22c12.15026,0 22,9.84974 22,22c0,12.15026 -9.84974,22 -22,22c-12.15026,0 -22,-9.84974 -22,-22z"></path><g text-anchor="start" font-size="14" font-weight="400" font-family="Roboto,sans-serif" stroke-width="1" fill="#000000"></g><rect stroke-width="1" fill="none" height="22" width="44" y="2" x="2"></rect><path stroke-width="1" fill="none" d="M2,24v-22h44v22z"></path><path stroke-width="1" fill="none" d="M2,24v-22h44v22z"></path><path stroke-width="1" fill="none" d="M2,24v-22h44v22z"></path><path stroke-width="1" fill="none" d="M2,24v-22h44v22z"></path></g></svg>